# xmcd
# 
# Track frame offsets:
#     150
#     26175
#     53575
#     79720
#     102485
#     128485
# 
# Disc length: 2219
# 
# Revision: 1
# Processed by: cddbd v1.5.2PL0 Copyright (c) Steve Scherf et al.
# Submitted via: BonkEnc v1.0.8
# 
DISCID=4308a906
DTITLE=Jimmy McGriff - The Groover
DYEAR=1982
DGENRE=Fusion
TTITLE0=Night Train
TTITLE1=When I Grow
TTITLE2=Soft
TTITLE3=Song For My Father
TTITLE4=Mercy,Mercy,Mercy
TTITLE5=This One's For Ray
EXTD=
EXTT0=
EXTT1=
EXTT2=
EXTT3=
EXTT4=
EXTT5=
PLAYORDER=
